<svg xmlns="http://www.w3.org/2000/svg" xmlns:xlink="http://www.w3.org/1999/xlink" width="500" zoomAndPan="magnify" viewBox="0 0 375 374.999991" height="500" preserveAspectRatio="xMidYMid meet" version="1.0"><defs><clipPath id="d340cf0ebf"><path d="M 10.546875 0 L 364.546875 0 L 364.546875 375 L 10.546875 375 Z M 10.546875 0 " clip-rule="nonzero"/></clipPath></defs><g clip-path="url(#d340cf0ebf)"><path fill="#198754" d="M 136.113281 306.015625 L 174.480469 265.875 C 188.230469 269.886719 201.328125 274.921875 213.730469 280.664062 L 206.789062 288.335938 C 242.898438 306.363281 271.828125 327.042969 294.976562 348.195312 C 301.464844 344.285156 307.691406 340 313.632812 335.363281 C 278.785156 303.257812 209.285156 251.496094 122.015625 249.6875 L 156.542969 213.5625 C 170.816406 216.957031 184.398438 221.519531 197.277344 226.933594 L 192.691406 232.003906 C 251.527344 261.375 291.304688 297.792969 318.054688 331.800781 C 322.476562 328.128906 326.734375 324.257812 330.804688 320.195312 C 294.683594 277.070312 227.484375 214.425781 134.710938 202.46875 L 285.980469 65.117188 C 285.980469 65.117188 325.078125 70.34375 364.316406 100.210938 C 332.90625 40.632812 270.363281 0.0078125 198.316406 0.0078125 C 94.738281 0.0078125 10.777344 83.953125 10.777344 187.5 C 10.777344 291.050781 94.738281 374.992188 198.316406 374.992188 C 229.890625 374.992188 259.636719 367.179688 285.742188 353.402344 C 248.335938 330.347656 191.378906 302.871094 136.113281 306.015625 " fill-opacity="1" fill-rule="nonzero"/></g></svg>