<svg xmlns="http://www.w3.org/2000/svg" xmlns:xlink="http://www.w3.org/1999/xlink" width="700" zoomAndPan="magnify" viewBox="0 0 525 149.999998" height="200" preserveAspectRatio="xMidYMid meet" version="1.0"><defs><g/><clipPath id="cfd9618c7d"><path d="M 0 3.152344 L 131.25 3.152344 L 131.25 142.652344 L 0 142.652344 Z M 0 3.152344 " clip-rule="nonzero"/></clipPath></defs><g clip-path="url(#cfd9618c7d)"><path fill="#198754" d="M 46.554688 116.992188 L 60.78125 102.058594 C 65.878906 103.550781 70.734375 105.421875 75.332031 107.558594 L 72.757812 110.414062 C 86.148438 117.121094 96.871094 124.8125 105.457031 132.679688 C 107.859375 131.226562 110.167969 129.632812 112.371094 127.90625 C 99.453125 115.964844 73.683594 96.707031 41.328125 96.035156 L 54.128906 82.597656 C 59.421875 83.859375 64.457031 85.558594 69.234375 87.574219 L 67.53125 89.457031 C 89.347656 100.382812 104.09375 113.933594 114.011719 126.582031 C 115.652344 125.214844 117.230469 123.777344 118.738281 122.265625 C 105.347656 106.222656 80.433594 82.917969 46.035156 78.46875 L 102.121094 27.378906 C 102.121094 27.378906 116.617188 29.320312 131.164062 40.433594 C 119.519531 18.269531 96.332031 3.15625 69.617188 3.15625 C 31.214844 3.15625 0.0859375 34.382812 0.0859375 72.902344 C 0.0859375 111.421875 31.214844 142.648438 69.617188 142.648438 C 81.324219 142.648438 92.351562 139.742188 102.03125 134.617188 C 88.164062 126.042969 67.046875 115.820312 46.554688 116.992188 " fill-opacity="1" fill-rule="nonzero"/></g><g fill="#198754" fill-opacity="1"><g transform="translate(109.053917, 103.901887)"><g><path d="M 1.109375 -45.3125 L 1.109375 -55.515625 L 31.15625 -55.515625 L 31.15625 -45.3125 L 22.140625 -45.3125 L 22.140625 0 L 10.125 0 L 10.125 -45.3125 Z M 1.109375 -45.3125 "/></g></g></g><g fill="#198754" fill-opacity="1"><g transform="translate(141.389465, 103.901887)"><g><path d="M 16.296875 -22.734375 L 16.296875 0 L 4.296875 0 L 4.296875 -55.515625 L 25.65625 -55.515625 C 32.75 -55.515625 36.296875 -51.738281 36.296875 -44.1875 L 36.296875 -37.75 C 36.296875 -33.175781 34.664062 -30.257812 31.40625 -29 C 34.269531 -27.96875 35.703125 -25.625 35.703125 -21.96875 L 35.703125 0 L 23.6875 0 L 23.6875 -21.03125 C 23.6875 -22.164062 23.140625 -22.734375 22.046875 -22.734375 Z M 16.296875 -47.375 L 16.296875 -31.15625 L 22.65625 -31.15625 C 23.113281 -31.15625 23.5 -31.328125 23.8125 -31.671875 C 24.125 -32.015625 24.28125 -32.410156 24.28125 -32.859375 L 24.28125 -45.65625 C 24.28125 -46.113281 24.125 -46.515625 23.8125 -46.859375 C 23.5 -47.203125 23.113281 -47.375 22.65625 -47.375 Z M 16.296875 -47.375 "/></g></g></g><g fill="#198754" fill-opacity="1"><g transform="translate(181.101311, 103.901887)"><g><path d="M 26.34375 -56.375 C 33.4375 -56.375 36.984375 -52.597656 36.984375 -45.046875 L 36.984375 0 L 24.96875 0 L 24.96875 -18.625 L 16.296875 -18.625 L 16.296875 0 L 4.296875 0 L 4.296875 -45.046875 C 4.296875 -52.597656 7.84375 -56.375 14.9375 -56.375 Z M 16.296875 -27.890625 L 24.96875 -27.890625 L 24.96875 -46.515625 C 24.96875 -46.972656 24.8125 -47.375 24.5 -47.71875 C 24.1875 -48.0625 23.800781 -48.234375 23.34375 -48.234375 L 17.9375 -48.234375 C 17.476562 -48.234375 17.085938 -48.0625 16.765625 -47.71875 C 16.453125 -47.375 16.296875 -46.972656 16.296875 -46.515625 Z M 16.296875 -27.890625 "/></g></g></g><g fill="#198754" fill-opacity="1"><g transform="translate(222.700095, 103.901887)"><g><path d="M 24.96875 -9.09375 L 24.96875 -17.671875 L 36.390625 -17.671875 L 36.390625 -10.46875 C 36.390625 -2.914062 32.84375 0.859375 25.75 0.859375 L 14.9375 0.859375 C 7.84375 0.859375 4.296875 -2.914062 4.296875 -10.46875 L 4.296875 -45.046875 C 4.296875 -52.597656 7.84375 -56.375 14.9375 -56.375 L 25.75 -56.375 C 32.84375 -56.375 36.390625 -52.597656 36.390625 -45.046875 L 36.390625 -39.8125 L 24.96875 -39.8125 L 24.96875 -46.515625 C 24.96875 -46.972656 24.8125 -47.375 24.5 -47.71875 C 24.1875 -48.0625 23.800781 -48.234375 23.34375 -48.234375 L 17.9375 -48.234375 C 17.476562 -48.234375 17.085938 -48.0625 16.765625 -47.71875 C 16.453125 -47.375 16.296875 -46.972656 16.296875 -46.515625 L 16.296875 -9.09375 C 16.296875 -8.632812 16.453125 -8.234375 16.765625 -7.890625 C 17.085938 -7.546875 17.476562 -7.375 17.9375 -7.375 L 23.34375 -7.375 C 23.800781 -7.375 24.1875 -7.546875 24.5 -7.890625 C 24.8125 -8.234375 24.96875 -8.632812 24.96875 -9.09375 Z M 24.96875 -9.09375 "/></g></g></g><g fill="#198754" fill-opacity="1"><g transform="translate(261.983089, 103.901887)"><g><path d="M 38.875 -55.515625 L 29.4375 -30.03125 L 40.671875 0 L 28.40625 0 L 20.171875 -21.96875 L 16.296875 -21.96875 L 16.296875 0 L 4.296875 0 L 4.296875 -55.515625 L 16.296875 -55.515625 L 16.296875 -32.265625 L 19.21875 -32.265625 L 27.890625 -55.515625 Z M 38.875 -55.515625 "/></g></g></g><g fill="#198754" fill-opacity="1"><g transform="translate(302.466865, 103.901887)"><g/></g></g><g fill="#198754" fill-opacity="1"><g transform="translate(319.792552, 103.901887)"><g><path d="M 31.40625 -30.375 C 35.125 -29.0625 36.984375 -26.03125 36.984375 -21.28125 L 36.984375 -11.328125 C 36.984375 -3.773438 33.4375 0 26.34375 0 L 4.296875 0 L 4.296875 -55.515625 L 25.65625 -55.515625 C 32.75 -55.515625 36.296875 -51.738281 36.296875 -44.1875 L 36.296875 -39.125 C 36.296875 -34.550781 34.664062 -31.632812 31.40625 -30.375 Z M 22.65625 -47.375 L 16.296875 -47.375 L 16.296875 -32.515625 L 22.65625 -32.515625 C 23.113281 -32.515625 23.5 -32.6875 23.8125 -33.03125 C 24.125 -33.375 24.28125 -33.773438 24.28125 -34.234375 L 24.28125 -45.65625 C 24.28125 -46.113281 24.125 -46.515625 23.8125 -46.859375 C 23.5 -47.203125 23.113281 -47.375 22.65625 -47.375 Z M 24.96875 -9.953125 L 24.96875 -22.390625 C 24.96875 -22.847656 24.8125 -23.25 24.5 -23.59375 C 24.1875 -23.9375 23.800781 -24.109375 23.34375 -24.109375 L 16.296875 -24.109375 L 16.296875 -8.234375 L 23.34375 -8.234375 C 23.800781 -8.234375 24.1875 -8.40625 24.5 -8.75 C 24.8125 -9.09375 24.96875 -9.492188 24.96875 -9.953125 Z M 24.96875 -9.953125 "/></g></g></g><g fill="#198754" fill-opacity="1"><g transform="translate(360.705184, 103.901887)"><g><path d="M 36.984375 -45.046875 L 36.984375 -10.46875 C 36.984375 -2.914062 33.4375 0.859375 26.34375 0.859375 L 14.9375 0.859375 C 7.84375 0.859375 4.296875 -2.914062 4.296875 -10.46875 L 4.296875 -45.046875 C 4.296875 -52.597656 7.84375 -56.375 14.9375 -56.375 L 26.34375 -56.375 C 33.4375 -56.375 36.984375 -52.597656 36.984375 -45.046875 Z M 24.96875 -9.09375 L 24.96875 -46.515625 C 24.96875 -46.972656 24.8125 -47.375 24.5 -47.71875 C 24.1875 -48.0625 23.800781 -48.234375 23.34375 -48.234375 L 17.9375 -48.234375 C 17.476562 -48.234375 17.085938 -48.0625 16.765625 -47.71875 C 16.453125 -47.375 16.296875 -46.972656 16.296875 -46.515625 L 16.296875 -9.09375 C 16.296875 -8.632812 16.453125 -8.234375 16.765625 -7.890625 C 17.085938 -7.546875 17.476562 -7.375 17.9375 -7.375 L 23.34375 -7.375 C 23.800781 -7.375 24.1875 -7.546875 24.5 -7.890625 C 24.8125 -8.234375 24.96875 -8.632812 24.96875 -9.09375 Z M 24.96875 -9.09375 "/></g></g></g><g fill="#198754" fill-opacity="1"><g transform="translate(402.218225, 103.901887)"><g><path d="M 36.984375 -45.046875 L 36.984375 -10.46875 C 36.984375 -2.914062 33.4375 0.859375 26.34375 0.859375 L 14.9375 0.859375 C 7.84375 0.859375 4.296875 -2.914062 4.296875 -10.46875 L 4.296875 -45.046875 C 4.296875 -52.597656 7.84375 -56.375 14.9375 -56.375 L 26.34375 -56.375 C 33.4375 -56.375 36.984375 -52.597656 36.984375 -45.046875 Z M 24.96875 -9.09375 L 24.96875 -46.515625 C 24.96875 -46.972656 24.8125 -47.375 24.5 -47.71875 C 24.1875 -48.0625 23.800781 -48.234375 23.34375 -48.234375 L 17.9375 -48.234375 C 17.476562 -48.234375 17.085938 -48.0625 16.765625 -47.71875 C 16.453125 -47.375 16.296875 -46.972656 16.296875 -46.515625 L 16.296875 -9.09375 C 16.296875 -8.632812 16.453125 -8.234375 16.765625 -7.890625 C 17.085938 -7.546875 17.476562 -7.375 17.9375 -7.375 L 23.34375 -7.375 C 23.800781 -7.375 24.1875 -7.546875 24.5 -7.890625 C 24.8125 -8.234375 24.96875 -8.632812 24.96875 -9.09375 Z M 24.96875 -9.09375 "/></g></g></g><g fill="#198754" fill-opacity="1"><g transform="translate(443.731266, 103.901887)"><g><path d="M 38.875 -55.515625 L 29.4375 -30.03125 L 40.671875 0 L 28.40625 0 L 20.171875 -21.96875 L 16.296875 -21.96875 L 16.296875 0 L 4.296875 0 L 4.296875 -55.515625 L 16.296875 -55.515625 L 16.296875 -32.265625 L 19.21875 -32.265625 L 27.890625 -55.515625 Z M 38.875 -55.515625 "/></g></g></g><g fill="#198754" fill-opacity="1"><g transform="translate(484.215043, 103.901887)"><g><path d="M 35.09375 -40.9375 L 23.6875 -40.9375 L 23.6875 -45.3125 C 23.6875 -45.769531 23.523438 -46.171875 23.203125 -46.515625 C 22.890625 -46.859375 22.503906 -47.03125 22.046875 -47.03125 L 17.328125 -47.03125 C 16.867188 -47.03125 16.484375 -46.859375 16.171875 -46.515625 C 15.859375 -46.171875 15.703125 -45.769531 15.703125 -45.3125 L 15.703125 -35.4375 C 15.703125 -34.976562 15.859375 -34.578125 16.171875 -34.234375 C 16.484375 -33.890625 16.867188 -33.71875 17.328125 -33.71875 L 25.0625 -33.71875 C 32.15625 -33.601562 35.703125 -29.828125 35.703125 -22.390625 L 35.703125 -10.46875 C 35.703125 -2.914062 32.15625 0.859375 25.0625 0.859375 L 14.9375 0.859375 C 7.84375 0.859375 4.296875 -2.914062 4.296875 -10.46875 L 4.296875 -16.21875 L 15.703125 -16.21875 L 15.703125 -10.046875 C 15.703125 -9.585938 15.859375 -9.1875 16.171875 -8.84375 C 16.484375 -8.5 16.867188 -8.328125 17.328125 -8.328125 L 22.65625 -8.328125 C 23.113281 -8.328125 23.5 -8.5 23.8125 -8.84375 C 24.125 -9.1875 24.28125 -9.585938 24.28125 -10.046875 L 24.28125 -20.9375 C 24.28125 -21.394531 24.125 -21.796875 23.8125 -22.140625 C 23.5 -22.484375 23.113281 -22.65625 22.65625 -22.65625 L 14.9375 -22.65625 C 7.84375 -22.65625 4.296875 -26.429688 4.296875 -33.984375 L 4.296875 -45.046875 C 4.296875 -52.597656 7.84375 -56.375 14.9375 -56.375 L 24.453125 -56.375 C 31.546875 -56.375 35.09375 -52.597656 35.09375 -45.046875 Z M 35.09375 -40.9375 "/></g></g></g><g fill="#ffffff" fill-opacity="1"><g transform="translate(158.45542, 138.297967)"><g><path d="M 18.328125 -22.328125 L 18.328125 -5.1875 C 18.328125 -1.445312 16.570312 0.421875 13.0625 0.421875 L 7.40625 0.421875 C 3.882812 0.421875 2.125 -1.445312 2.125 -5.1875 L 2.125 -22.328125 C 2.125 -26.066406 3.882812 -27.9375 7.40625 -27.9375 L 13.0625 -27.9375 C 16.570312 -27.9375 18.328125 -26.066406 18.328125 -22.328125 Z M 12.375 -4.515625 L 12.375 -23.046875 C 12.375 -23.273438 12.296875 -23.472656 12.140625 -23.640625 C 11.984375 -23.816406 11.789062 -23.90625 11.5625 -23.90625 L 8.890625 -23.90625 C 8.660156 -23.90625 8.46875 -23.816406 8.3125 -23.640625 C 8.15625 -23.472656 8.078125 -23.273438 8.078125 -23.046875 L 8.078125 -4.515625 C 8.078125 -4.285156 8.15625 -4.082031 8.3125 -3.90625 C 8.46875 -3.738281 8.660156 -3.65625 8.890625 -3.65625 L 11.5625 -3.65625 C 11.789062 -3.65625 11.984375 -3.738281 12.140625 -3.90625 C 12.296875 -4.082031 12.375 -4.285156 12.375 -4.515625 Z M 12.375 -4.515625 "/></g></g></g><g fill="#ffffff" fill-opacity="1"><g transform="translate(179.039515, 138.297967)"><g><path d="M 17.90625 0 L 11.953125 0 L 11.953125 -22.84375 C 11.953125 -23.0625 11.875 -23.253906 11.71875 -23.421875 C 11.5625 -23.597656 11.367188 -23.6875 11.140625 -23.6875 L 8.84375 -23.6875 C 8.613281 -23.6875 8.421875 -23.597656 8.265625 -23.421875 C 8.109375 -23.253906 8.03125 -23.0625 8.03125 -22.84375 L 8.03125 0 L 2.078125 0 L 2.078125 -22.328125 C 2.078125 -26.066406 3.835938 -27.9375 7.359375 -27.9375 L 12.625 -27.9375 C 16.144531 -27.9375 17.90625 -26.066406 17.90625 -22.328125 Z M 17.90625 0 "/></g></g></g><g fill="#ffffff" fill-opacity="1"><g transform="translate(198.815539, 138.297967)"><g/></g></g><g fill="#ffffff" fill-opacity="1"><g transform="translate(207.406432, 138.297967)"><g><path d="M 18.078125 -27.515625 L 12.15625 -10.03125 L 12.15625 0 L 6.203125 0 L 6.203125 -10.03125 L 0.296875 -27.515625 L 5.90625 -27.515625 L 9.1875 -16.03125 L 12.46875 -27.515625 Z M 18.078125 -27.515625 "/></g></g></g><g fill="#ffffff" fill-opacity="1"><g transform="translate(225.906572, 138.297967)"><g><path d="M 18.328125 -22.328125 L 18.328125 -5.1875 C 18.328125 -1.445312 16.570312 0.421875 13.0625 0.421875 L 7.40625 0.421875 C 3.882812 0.421875 2.125 -1.445312 2.125 -5.1875 L 2.125 -22.328125 C 2.125 -26.066406 3.882812 -27.9375 7.40625 -27.9375 L 13.0625 -27.9375 C 16.570312 -27.9375 18.328125 -26.066406 18.328125 -22.328125 Z M 12.375 -4.515625 L 12.375 -23.046875 C 12.375 -23.273438 12.296875 -23.472656 12.140625 -23.640625 C 11.984375 -23.816406 11.789062 -23.90625 11.5625 -23.90625 L 8.890625 -23.90625 C 8.660156 -23.90625 8.46875 -23.816406 8.3125 -23.640625 C 8.15625 -23.472656 8.078125 -23.273438 8.078125 -23.046875 L 8.078125 -4.515625 C 8.078125 -4.285156 8.15625 -4.082031 8.3125 -3.90625 C 8.46875 -3.738281 8.660156 -3.65625 8.890625 -3.65625 L 11.5625 -3.65625 C 11.789062 -3.65625 11.984375 -3.738281 12.140625 -3.90625 C 12.296875 -4.082031 12.375 -4.285156 12.375 -4.515625 Z M 12.375 -4.515625 "/></g></g></g><g fill="#ffffff" fill-opacity="1"><g transform="translate(246.490667, 138.297967)"><g><path d="M 11.953125 -27.515625 L 17.90625 -27.515625 L 17.90625 -5.1875 C 17.90625 -1.445312 16.144531 0.421875 12.625 0.421875 L 7.359375 0.421875 C 3.835938 0.421875 2.078125 -1.445312 2.078125 -5.1875 L 2.078125 -27.515625 L 8.03125 -27.515625 L 8.03125 -4.671875 C 8.03125 -4.453125 8.109375 -4.253906 8.265625 -4.078125 C 8.421875 -3.910156 8.613281 -3.828125 8.84375 -3.828125 L 11.140625 -3.828125 C 11.367188 -3.828125 11.5625 -3.910156 11.71875 -4.078125 C 11.875 -4.253906 11.953125 -4.453125 11.953125 -4.671875 Z M 11.953125 -27.515625 "/></g></g></g><g fill="#ffffff" fill-opacity="1"><g transform="translate(266.351738, 138.297967)"><g><path d="M 8.078125 -11.265625 L 8.078125 0 L 2.125 0 L 2.125 -27.515625 L 12.71875 -27.515625 C 16.226562 -27.515625 17.984375 -25.644531 17.984375 -21.90625 L 17.984375 -18.71875 C 17.984375 -16.445312 17.175781 -15 15.5625 -14.375 C 16.976562 -13.863281 17.6875 -12.703125 17.6875 -10.890625 L 17.6875 0 L 11.734375 0 L 11.734375 -10.421875 C 11.734375 -10.984375 11.46875 -11.265625 10.9375 -11.265625 Z M 8.078125 -23.484375 L 8.078125 -15.4375 L 11.234375 -15.4375 C 11.453125 -15.4375 11.640625 -15.519531 11.796875 -15.6875 C 11.953125 -15.863281 12.03125 -16.066406 12.03125 -16.296875 L 12.03125 -22.625 C 12.03125 -22.851562 11.953125 -23.050781 11.796875 -23.21875 C 11.640625 -23.394531 11.453125 -23.484375 11.234375 -23.484375 Z M 8.078125 -23.484375 "/></g></g></g><g fill="#ffffff" fill-opacity="1"><g transform="translate(286.042715, 138.297967)"><g/></g></g><g fill="#ffffff" fill-opacity="1"><g transform="translate(294.633607, 138.297967)"><g><path d="M 12.296875 -27.515625 L 17.5625 -27.515625 L 20.75 -6.8125 L 23.140625 -27.515625 L 28.921875 -27.515625 L 24.453125 0 L 17.6875 0 L 14.921875 -16.890625 L 12.15625 0 L 5.40625 0 L 0.9375 -27.515625 L 6.71875 -27.515625 L 9.109375 -6.8125 Z M 12.296875 -27.515625 "/></g></g></g><g fill="#ffffff" fill-opacity="1"><g transform="translate(324.701679, 138.297967)"><g><path d="M 13.0625 -27.9375 C 16.570312 -27.9375 18.328125 -26.066406 18.328125 -22.328125 L 18.328125 0 L 12.375 0 L 12.375 -9.234375 L 8.078125 -9.234375 L 8.078125 0 L 2.125 0 L 2.125 -22.328125 C 2.125 -26.066406 3.882812 -27.9375 7.40625 -27.9375 Z M 8.078125 -13.828125 L 12.375 -13.828125 L 12.375 -23.046875 C 12.375 -23.273438 12.296875 -23.472656 12.140625 -23.640625 C 11.984375 -23.816406 11.789062 -23.90625 11.5625 -23.90625 L 8.890625 -23.90625 C 8.660156 -23.90625 8.46875 -23.816406 8.3125 -23.640625 C 8.15625 -23.472656 8.078125 -23.273438 8.078125 -23.046875 Z M 8.078125 -13.828125 "/></g></g></g><g fill="#ffffff" fill-opacity="1"><g transform="translate(345.32828, 138.297967)"><g><path d="M 0.546875 -22.453125 L 0.546875 -27.515625 L 15.4375 -27.515625 L 15.4375 -22.453125 L 10.96875 -22.453125 L 10.96875 0 L 5.015625 0 L 5.015625 -22.453125 Z M 0.546875 -22.453125 "/></g></g></g><g fill="#ffffff" fill-opacity="1"><g transform="translate(361.361735, 138.297967)"><g><path d="M 12.375 -4.515625 L 12.375 -8.765625 L 18.03125 -8.765625 L 18.03125 -5.1875 C 18.03125 -1.445312 16.273438 0.421875 12.765625 0.421875 L 7.40625 0.421875 C 3.882812 0.421875 2.125 -1.445312 2.125 -5.1875 L 2.125 -22.328125 C 2.125 -26.066406 3.882812 -27.9375 7.40625 -27.9375 L 12.765625 -27.9375 C 16.273438 -27.9375 18.03125 -26.066406 18.03125 -22.328125 L 18.03125 -19.734375 L 12.375 -19.734375 L 12.375 -23.046875 C 12.375 -23.273438 12.296875 -23.472656 12.140625 -23.640625 C 11.984375 -23.816406 11.789062 -23.90625 11.5625 -23.90625 L 8.890625 -23.90625 C 8.660156 -23.90625 8.46875 -23.816406 8.3125 -23.640625 C 8.15625 -23.472656 8.078125 -23.273438 8.078125 -23.046875 L 8.078125 -4.515625 C 8.078125 -4.285156 8.15625 -4.082031 8.3125 -3.90625 C 8.46875 -3.738281 8.660156 -3.65625 8.890625 -3.65625 L 11.5625 -3.65625 C 11.789062 -3.65625 11.984375 -3.738281 12.140625 -3.90625 C 12.296875 -4.082031 12.375 -4.285156 12.375 -4.515625 Z M 12.375 -4.515625 "/></g></g></g><g fill="#ffffff" fill-opacity="1"><g transform="translate(380.840076, 138.297967)"><g><path d="M 8.078125 -10.796875 L 8.078125 0 L 2.125 0 L 2.125 -27.515625 L 8.078125 -27.515625 L 8.078125 -15.984375 L 12.796875 -15.984375 L 12.796875 -27.515625 L 18.75 -27.515625 L 18.75 0 L 12.796875 0 L 12.796875 -10.796875 Z M 8.078125 -10.796875 "/></g></g></g></svg>